HIERARCHY
ROOT hip
{
	OFFSET 0.000000 0.000000 0.000000 
	CHANNELS 6 Xposition Yposition Zposition Xrotation Zrotation Yrotation
	JOINT abdomen
	{
		OFFSET 0.000000 3.402643 0.000000 
		CHANNELS 3 Xrotation Zrotation Yrotation
		JOINT chest
		{
			OFFSET 0.000000 8.438565 -0.680529 
			CHANNELS 3 Xrotation Zrotation Yrotation
			JOINT neck
			{
				OFFSET 0.000000 10.207942 -0.272212 
				CHANNELS 3 Xrotation Zrotation Yrotation
				JOINT head
				{
					OFFSET 0.000000 3.130431 0.000000 
					CHANNELS 3 Xrotation Zrotation Yrotation
					End Site
					{
						OFFSET 0.000000 3.130435 0.000000 
					}
				}
			}
			JOINT lCollar
			{
				OFFSET 3.470700 6.669187 -0.816635 
				CHANNELS 3 Yrotation Zrotation Xrotation
				JOINT lShldr
				{
					OFFSET 3.198488 0.000000 0.000000 
					CHANNELS 3 Zrotation Yrotation Xrotation
					JOINT lForeArm
					{
						OFFSET 10.139888 0.000000 0.000000 
						CHANNELS 3 Yrotation Zrotation Xrotation
						JOINT lHand
						{
							OFFSET 8.370511 0.000000 0.000000 
							CHANNELS 3 Zrotation Yrotation Xrotation
							End Site
							{
								OFFSET 4.083176 0.000000 0.000000 
							}
						}
					}
				}
			}
			JOINT rCollar
			{
				OFFSET -3.470700 6.669187 -0.816635 
				CHANNELS 3 Yrotation Zrotation Xrotation
				JOINT rShldr
				{
					OFFSET -3.198488 0.000000 0.000000 
					CHANNELS 3 Zrotation Yrotation Xrotation
					JOINT rForeArm
					{
						OFFSET -10.139888 0.000000 0.000000 
						CHANNELS 3 Yrotation Zrotation Xrotation
						JOINT rHand
						{
							OFFSET -8.370511 0.000000 0.000000 
							CHANNELS 3 Zrotation Yrotation Xrotation
							End Site
							{
								OFFSET -4.083176 0.000000 0.000000 
							}
						}
					}
				}
			}
		}
	}
	JOINT lThigh
	{
		OFFSET 5.308129 -1.633274 1.361059 
		CHANNELS 3 Xrotation Zrotation Yrotation
		JOINT lShin
		{
			OFFSET -2.041588 -20.007561 0.000000 
			CHANNELS 3 Xrotation Zrotation Yrotation
			JOINT lFoot
			{
				OFFSET 0.000000 -19.190928 -1.224953 
				CHANNELS 3 Xrotation Yrotation Zrotation
				End Site
				{
					OFFSET 0.000000 -2.449906 4.627600 
				}
			}
		}
	}
	JOINT rThigh
	{
		OFFSET -5.308129 -1.633274 1.361059 
		CHANNELS 3 Xrotation Zrotation Yrotation
		JOINT rShin
		{
			OFFSET 2.041588 -20.007561 0.000000 
			CHANNELS 3 Xrotation Zrotation Yrotation
			JOINT rFoot
			{
				OFFSET 0.000000 -19.190928 -1.224953 
				CHANNELS 3 Xrotation Yrotation Zrotation
				End Site
				{
					OFFSET 0.000000 -2.449906 4.627600 
				}
			}
		}
	}
}
MOTION
Frames: 8
Frame Time: 0.033333
-2.568634 42.047180 50.466164 -12.841797 -2.646484 130.771484 16.992188 1.582031 5.644531 -7.480469 3.691406 6.279297 -9.501953 3.388672 18.593748 18.496092 -16.894531 17.773439 5.800781 0.429688 -0.058594 -68.378906 -2.529297 -0.556641 -95.410156 -3.251953 -42.489677 21.250002 -123.613281 -16.609697 7.724609 2.197266 -0.117188 66.474609 9.062500 22.179274 64.931641 3.271485 -39.727123 8.486328 6.875000 1.065624 -47.212826 33.431755 20.020987 49.301559 -0.384628 -2.832057 -14.523132 -8.607780 -9.471119 -5.066892 -10.053107 -11.910020 30.170046 0.868887 1.708460 -29.032181 -7.639228 3.151885 
-2.585926 42.043995 50.459793 -12.841797 -2.646484 130.771484 16.992188 1.582031 5.644531 -7.480469 3.691406 6.279297 -9.853516 3.564453 18.584593 18.857422 -16.894531 17.753906 5.976563 0.429687 -0.058594 -68.037109 -2.890625 -0.449711 -95.400391 -3.408203 -42.685543 21.416031 -123.837883 -16.844051 7.548828 2.373047 -0.136719 66.435547 9.384766 22.013309 64.931641 3.271485 -39.727123 8.828125 6.689453 1.085122 -47.406532 33.468460 20.141558 49.285057 -0.248248 -2.965484 -14.651249 -8.957156 -9.682951 -5.066893 -10.053106 -11.910021 30.170046 0.868890 1.708460 -29.181089 -7.821452 2.999875 
-2.611926 42.039211 50.446548 -13.017579 -2.822266 130.781250 16.816406 1.582031 5.644531 -7.304688 3.691406 6.289063 -10.029297 3.564453 18.583986 18.857422 -17.070311 17.753906 5.976563 0.429687 -0.058594 -68.056641 -2.900391 -0.381354 -95.527344 -3.291015 -42.685551 21.162111 -123.779297 -16.609680 7.548828 2.373047 -0.136719 66.474609 9.179688 21.915621 65.058594 3.320312 -39.658203 9.179688 6.328125 1.104594 -47.466824 33.373341 20.039207 49.294815 -0.248259 -2.965954 -14.592525 -8.918656 -9.272985 -5.066894 -10.053107 -11.910022 29.984554 0.868894 1.699480 -29.045717 -7.652802 3.326378 
-2.635472 42.022778 50.422882 -13.017579 -2.822266 130.957031 16.816406 1.582031 5.644531 -7.304688 3.691406 6.289063 -10.195313 3.574219 18.769533 19.218750 -17.060547 17.731508 6.152343 0.429687 -0.068359 -67.890625 -2.919922 -0.292969 -95.517578 -3.271484 -42.861328 21.162111 -123.779297 -16.609680 7.548829 2.539063 -0.156683 66.455078 9.335938 21.845705 65.058594 3.320312 -39.658203 9.355469 6.503906 1.114389 -47.614506 33.160244 20.073042 49.470455 -0.248259 -2.974341 -14.710339 -8.705942 -9.347785 -5.067825 -10.221586 -12.091352 29.984800 0.859079 1.697055 -29.181877 -7.859030 3.181917 
-2.665886 42.005482 50.384129 -13.017578 -2.988281 130.957031 16.816406 1.416016 5.595703 -7.304688 3.691406 6.289063 -10.371094 3.574219 18.769533 19.218750 -17.060547 17.731508 6.152343 0.429687 -0.068359 -67.890625 -2.919922 -0.292969 -95.644531 -3.310547 -43.056644 21.162111 -123.779297 -16.609680 7.548829 2.539063 -0.156683 66.376953 9.335938 21.749636 64.990234 3.339844 -39.873047 9.189452 6.679687 1.103516 -47.773495 32.959106 19.904558 49.671406 -0.431281 -2.890161 -14.827207 -8.478232 -9.446964 -5.077695 -10.417899 -12.273016 30.170046 0.868881 1.708458 -29.385351 -7.630894 2.912537 
-2.693971 41.994690 50.321335 -13.017579 -3.173828 131.132813 16.640623 1.416016 5.595703 -7.480469 3.691406 6.279297 -10.195313 3.574219 18.769533 19.218750 -17.236328 17.731480 5.976563 0.429687 -0.058594 -67.880859 -2.548828 -0.361761 -95.742188 -3.310547 -43.593754 21.474634 -124.033203 -16.834265 7.724608 2.373047 -0.136719 66.240234 9.003906 21.718752 65.126953 3.222656 -39.873596 9.189452 6.679687 1.103516 -47.916851 32.730061 19.938627 49.659443 -0.257814 -3.152293 -14.969974 -8.338660 -9.387260 -5.086934 -10.600772 -12.267406 29.994564 0.859115 1.697536 -29.179491 -7.792235 2.836178 
-2.723035 41.969677 50.226658 -13.017579 -3.173828 131.308594 16.650391 1.464844 5.429937 -7.480469 3.691406 6.103516 -10.351563 3.583984 18.936157 19.218750 -17.236328 17.907263 5.976563 0.429687 -0.058594 -67.851563 -2.158203 -0.566406 -95.849609 -3.330078 -43.964272 22.031267 -124.345695 -17.283455 7.900391 2.539063 -0.176214 66.025391 8.681641 21.621094 65.253906 3.369141 -40.185547 8.642578 5.986328 1.075239 -48.329834 32.489929 19.465334 50.012505 -0.560437 -2.954771 -15.018155 -8.238967 -9.349937 -5.076530 -10.764972 -12.635380 29.984917 0.868904 1.689773 -29.217487 -7.667062 3.131431 
-2.748422 41.939747 50.111866 -13.017578 -3.349610 131.484375 16.650391 1.464844 5.429937 -7.480469 3.691406 6.103516 -10.351563 3.583984 18.936157 19.218750 -17.236328 17.907263 5.800781 0.263672 -0.039063 -67.626953 -1.904297 -0.937825 -96.074219 -3.378906 -44.531254 22.334009 -124.599602 -17.508038 7.900391 2.539063 -0.176214 65.761719 8.554687 21.660156 65.527344 3.320313 -40.928299 8.281250 5.849610 0.879903 -48.427658 32.021404 19.368258 50.348312 -0.433867 -3.089692 -15.181871 -8.000220 -9.239447 -5.076946 -10.931731 -12.816643 29.984800 0.859095 1.697059 -29.077082 -7.421144 3.315131 
